<?xml version="1.0" standalone="no"?>
<!DOCTYPE svg PUBLIC "-//W3C//DTD SVG 20010904//EN"
 "http://www.w3.org/TR/2001/REC-SVG-20010904/DTD/svg10.dtd">
<svg version="1.0" xmlns="http://www.w3.org/2000/svg"
 width="800.000000pt" height="800.000000pt" viewBox="0 0 800.000000 800.000000"
 preserveAspectRatio="xMidYMid meet">

<g transform="translate(0.000000,800.000000) scale(0.100000,-0.100000)"
fill="#000000" stroke="none">
<path d="M3515 7725 c-578 -86 -1124 -293 -1575 -596 -673 -453 -1198 -1150
-1450 -1925 -84 -259 -153 -592 -171 -831 -15 -192 -6 -673 15 -808 69 -447
188 -826 379 -1207 193 -384 427 -701 738 -1002 553 -535 1235 -883 1969
-1005 299 -50 488 -59 830 -41 338 18 694 98 1070 241 150 57 525 253 674 353
402 268 819 682 1069 1060 315 476 510 982 597 1551 28 178 39 659 21 866 -58
650 -318 1346 -690 1842 -406 541 -822 890 -1396 1168 -378 183 -688 277
-1108 334 -169 22 -218 25 -500 24 -273 -1 -332 -4 -472 -24z m525 -231 c0 -8
-4 -12 -10 -9 -5 3 -10 10 -10 16 0 5 5 9 10 9 6 0 10 -7 10 -16z m-520 -84
c0 -5 -4 -10 -10 -10 -5 0 -10 5 -10 10 0 6 5 10 10 10 6 0 10 -4 10 -10z
m1220 0 c0 -5 -4 -10 -10 -10 -5 0 -10 5 -10 10 0 6 5 10 10 10 6 0 10 -4 10
-10z m610 0 c0 -5 -2 -10 -4 -10 -3 0 -8 5 -11 10 -3 6 -1 10 4 10 6 0 11 -4
11 -10z m-980 -105 c0 -8 -4 -15 -9 -15 -13 0 -22 16 -14 24 11 11 23 6 23 -9z
m-962 -22 c-2 -21 -9 -29 -27 -31 -30 -5 -45 10 -36 37 5 15 15 21 36 21 27 0
30 -3 27 -27z m-558 -17 c0 -3 -4 -8 -10 -11 -5 -3 -10 -1 -10 4 0 6 5 11 10
11 6 0 10 -2 10 -4z m258 -94 c2 -7 -3 -12 -12 -12 -9 0 -16 7 -16 16 0 17 22
14 28 -4z m722 -2 c0 -5 -5 -10 -11 -10 -5 0 -7 5 -4 10 3 6 8 10 11 10 2 0 4
-4 4 -10z m-1216 -87 c-12 -7 -24 -23 -28 -35 -6 -23 -7 -23 -18 -3 -6 11 -19
26 -29 33 -17 12 -16 14 7 37 13 13 24 29 24 35 0 7 15 -3 33 -22 32 -33 32
-33 11 -45z m2246 57 c0 -5 -2 -10 -4 -10 -3 0 -8 5 -11 10 -3 6 -1 10 4 10 6
0 11 -4 11 -10z m-270 -35 c0 -8 -6 -15 -14 -15 -17 0 -28 14 -19 24 12 12 33
6 33 -9z m480 -25 c0 -5 -6 -10 -14 -10 -8 0 -18 5 -21 10 -3 6 3 10 14 10 12
0 21 -4 21 -10z m-136 -36 c10 -25 7 -34 -9 -34 -9 0 -15 9 -15 25 0 28 15 34
24 9z m-524 -9 c0 -21 -87 -165 -100 -165 -14 0 -100 73 -100 85 0 11 76 48
160 78 20 7 40 8 40 2z m515 -54 c7 -12 -12 -24 -25 -16 -11 7 -4 25 10 25 5
0 11 -4 15 -9z m-2705 -11 c0 -5 -4 -10 -10 -10 -5 0 -10 5 -10 10 0 6 5 10
10 10 6 0 10 -4 10 -10z m3235 -235 c20 -269 23 -283 50 -301 13 -8 94 -24
184 -36 89 -12 158 -25 154 -29 -5 -4 -79 -17 -167 -29 -178 -24 -182 -25
-191 -48 -7 -18 -28 -335 -40 -624 -4 -93 -11 -168 -15 -168 -4 0 -10 66 -14
148 -13 267 -36 631 -42 646 -9 23 -27 26 -204 42 -91 8 -176 18 -190 21 -28
7 -33 6 200 43 172 27 177 29 185 48 3 9 13 80 21 157 24 241 35 329 41 350 9
27 10 24 28 -220z m-585 216 c0 -13 -29 -35 -37 -28 -7 8 15 37 28 37 5 0 9
-4 9 -9z m-1130 -21 c0 -11 -4 -20 -9 -20 -14 0 -23 18 -16 30 10 17 25 11 25
-10z m494 -46 c26 -31 46 -59 46 -62 0 -19 -139 -189 -208 -253 -85 -80 -219
-185 -289 -226 -44 -26 -45 -26 -64 -6 -19 19 -19 19 43 66 35 26 79 60 98 77
l35 31 -45 -27 c-25 -15 -69 -45 -97 -67 -29 -21 -59 -37 -67 -34 -7 3 -23 19
-34 35 l-21 29 32 45 c126 174 295 333 437 412 36 20 70 36 77 36 7 0 32 -25
57 -56z m-1084 36 c0 -5 -2 -10 -4 -10 -3 0 -8 5 -11 10 -3 6 -1 10 4 10 6 0
11 -4 11 -10z m2770 -25 c0 -8 -7 -15 -15 -15 -16 0 -20 12 -8 23 11 12 23 8
23 -8z m-2580 -35 c0 -11 -4 -20 -9 -20 -14 0 -23 18 -16 30 10 17 25 11 25
-10z m1504 -9 c6 -9 -44 -35 -52 -27 -7 8 19 36 34 36 7 0 15 -4 18 -9z m-74
-10 c0 -12 -20 -25 -27 -18 -7 7 6 27 18 27 5 0 9 -4 9 -9z m-3005 -11 c3 -5
1 -10 -4 -10 -6 0 -11 5 -11 10 0 6 2 10 4 10 3 0 8 -4 11 -10z m1209 -6 c9
-8 16 -28 16 -43 0 -96 -260 -344 -595 -568 -234 -157 -617 -332 -870 -397
-167 -44 -245 -31 -245 38 0 49 45 110 172 231 150 143 219 184 89 54 -51 -52
-102 -111 -113 -132 -73 -144 48 -178 296 -83 65 25 121 46 124 46 3 0 3 3 0
6 -3 3 -23 -2 -43 -10 -126 -53 -324 -83 -353 -54 -21 21 -13 63 19 109 39 55
95 114 134 142 26 19 24 15 -16 -38 -51 -66 -79 -116 -79 -139 0 -9 12 -23 26
-33 23 -15 33 -15 87 -4 310 63 794 342 1035 595 75 80 93 115 71 142 -14 17
-69 16 -194 -1 l-40 -5 41 20 c130 63 283 65 292 4 4 -28 -72 -127 -166 -215
-85 -80 -277 -226 -389 -296 -40 -25 -73 -47 -73 -50 0 -3 10 1 23 9 12 8 51
32 87 53 147 89 402 293 490 392 78 89 76 166 -4 178 -58 9 -179 -9 -259 -40
-76 -28 -77 -28 -77 -16 0 14 207 95 295 114 11 3 61 5 112 6 71 1 95 -3 107
-15z m1676 -25 c9 -17 8 -23 -7 -35 -39 -30 -57 -8 -27 34 19 27 21 27 34 1z
m-2365 -33 c75 -35 179 -139 218 -218 15 -31 27 -63 27 -71 0 -31 -292 -237
-336 -237 -14 0 -23 -4 -20 -9 7 -11 -58 -51 -82 -51 -15 0 -15 2 -2 11 13 9
13 10 0 6 -8 -2 -14 -12 -12 -22 2 -11 -2 -15 -10 -12 -7 2 -12 17 -12 36 1
17 -3 31 -8 31 -6 0 -8 7 -4 15 3 8 1 15 -4 15 -10 0 -14 -14 -11 -36 2 -17
-31 -27 -41 -12 -4 7 -8 16 -8 21 0 12 18 8 23 -5 3 -8 6 -6 6 5 1 10 -6 17
-16 18 -15 0 -15 2 2 9 19 8 19 9 -2 9 -29 1 -31 21 -2 21 12 0 17 4 14 11 -4
6 -14 8 -22 5 -21 -8 -33 2 -26 20 4 11 14 14 32 10 26 -6 26 -6 -3 10 -27 15
-32 15 -62 0 -33 -15 -34 -15 -31 7 1 12 7 25 12 29 6 4 -2 8 -17 8 -30 0 -35
9 -16 28 6 6 8 15 3 19 -4 5 -10 3 -12 -3 -5 -16 -43 -5 -43 12 0 8 -4 14 -10
14 -5 0 -10 5 -10 10 0 17 48 11 59 -7 10 -17 10 -17 11 -1 0 9 -4 20 -10 23
-14 9 12 34 28 27 7 -2 20 5 28 17 9 12 20 19 25 16 5 -4 9 -1 9 4 0 14 -1 14
-43 -4 -48 -20 -49 -19 -44 13 2 15 2 21 0 14 -3 -7 -9 -9 -15 -6 -6 4 -8 -2
-4 -17 l7 -24 -19 22 c-17 20 -21 20 -26 7 -5 -13 -9 -14 -21 -4 -8 7 -23 9
-32 6 -16 -7 -17 -6 -2 9 9 9 29 17 45 19 43 5 43 7 -1 21 -22 8 -32 14 -23
14 11 1 18 11 20 29 2 21 9 28 31 30 15 2 27 7 27 12 0 5 -8 6 -17 3 -10 -4
-4 5 12 18 86 71 148 90 280 85 83 -2 110 -8 160 -30z m2475 14 c0 -5 -4 -10
-10 -10 -5 0 -10 5 -10 10 0 6 5 10 10 10 6 0 10 -4 10 -10z m227 -32 c-3 -8
-6 -5 -6 6 -1 11 2 17 5 13 3 -3 4 -12 1 -19z m-242 2 c3 -5 2 -10 -4 -10 -5
0 -18 -3 -28 -7 -16 -6 -16 -5 -4 10 15 19 27 22 36 7z m105 1 c0 -6 -4 -13
-10 -16 -5 -3 -10 1 -10 9 0 9 5 16 10 16 6 0 10 -4 10 -9z m892 -26 c0 -5 -5
-11 -11 -13 -6 -2 -11 4 -11 13 0 9 5 15 11 13 6 -2 11 -8 11 -13z m-602 -35
c0 -5 -5 -10 -11 -10 -5 0 -7 5 -4 10 3 6 8 10 11 10 2 0 4 -4 4 -10z m-1410
-46 c0 -4 -26 -37 -57 -73 -31 -36 -57 -67 -58 -68 0 -1 -49 -4 -110 -8 l-110
-6 60 55 c82 76 143 106 217 106 32 0 58 -3 58 -6z m814 -26 c-1 -18 -3 -35
-3 -37 -1 -3 -7 4 -15 14 -10 14 -11 25 -5 37 15 28 27 21 23 -14z m1697 -89
l30 -12 -31 -18 c-17 -11 -35 -31 -41 -46 l-10 -27 -19 31 c-10 17 -28 34 -39
38 -28 9 -26 17 8 36 19 11 32 29 37 50 l7 34 15 -37 c9 -24 24 -41 43 -49z
m-3096 -39 c-5 -8 -11 -8 -17 -2 -6 6 -7 16 -3 22 5 8 11 8 17 2 6 -6 7 -16 3
-22z m1273 -78 c2 -7 -3 -12 -12 -12 -9 0 -16 7 -16 16 0 17 22 14 28 -4z
m-3006 -17 c0 -5 -5 -11 -11 -13 -6 -2 -11 4 -11 13 0 9 5 15 11 13 6 -2 11
-8 11 -13z m3268 5 c0 -5 -5 -10 -11 -10 -5 0 -7 5 -4 10 3 6 8 10 11 10 2 0
4 -4 4 -10z m-1031 -53 c40 -47 50 -67 32 -67 -15 0 -101 101 -95 112 9 14 17
8 63 -45z m886 40 c22 -17 14 -32 -26 -52 -33 -18 -38 -8 -16 38 14 31 17 32
42 14z m-595 -63 l0 -66 -77 -79 c-42 -44 -80 -79 -85 -79 -4 0 -8 37 -8 83 0
81 1 84 33 114 34 33 117 92 130 93 4 0 7 -30 7 -66z m280 36 c0 -5 -4 -10
-10 -10 -5 0 -10 5 -10 10 0 6 5 10 10 10 6 0 10 -4 10 -10z m2474 -21 c-3 -5
-10 -7 -15 -3 -5 3 -7 10 -3 15 3 5 10 7 15 3 5 -3 7 -10 3 -15z m-294 -9 c0
-5 -5 -10 -11 -10 -5 0 -7 5 -4 10 3 6 8 10 11 10 2 0 4 -4 4 -10z m-2806 -33
c15 -19 26 -38 26 -43 0 -5 -48 -38 -106 -73 -122 -74 -147 -94 -504 -411
-276 -246 -310 -275 -310 -267 0 3 73 72 163 153 228 208 496 474 580 574 39
47 76 88 82 92 21 16 45 7 69 -25z m866 13 c0 -5 -2 -10 -4 -10 -3 0 -8 5 -11
10 -3 6 -1 10 4 10 6 0 11 -4 11 -10z m-2500 -24 c0 -3 -4 -8 -10 -11 -5 -3
-10 -1 -10 4 0 6 5 11 10 11 6 0 10 -2 10 -4z m1210 -41 c0 -7 -7 -18 -15 -25
-26 -22 -49 12 -24 37 14 14 39 6 39 -12z m1810 15 c0 -5 -4 -10 -10 -10 -5 0
-10 5 -10 10 0 6 5 10 10 10 6 0 10 -4 10 -10z m-2436 -47 c-14 -58 -60 -138
-109 -185 -69 -69 -120 -102 -142 -93 -11 4 -13 9 -7 12 13 4 7 43 -7 43 -5 0
-9 5 -9 10 0 11 33 14 43 3 4 -3 2 -12 -4 -20 -16 -19 -6 -16 19 6 29 24 28
39 -2 34 -29 -6 -42 12 -24 34 11 14 10 15 -12 9 -19 -6 -21 -5 -10 3 8 6 11
11 5 11 -5 0 -2 5 9 11 14 9 20 8 27 -2 7 -11 9 -10 9 3 0 19 35 48 130 107
79 49 93 51 84 14z m2076 -3 c0 -5 -4 -10 -9 -10 -6 0 -13 5 -16 10 -3 6 1 10
9 10 9 0 16 -4 16 -10z m-170 -44 c0 -3 -4 -8 -10 -11 -5 -3 -10 -1 -10 4 0 6
5 11 10 11 6 0 10 -2 10 -4z m-3200 -16 c0 -5 -5 -10 -11 -10 -5 0 -7 5 -4 10
3 6 8 10 11 10 2 0 4 -4 4 -10z m3830 2 c0 -13 -12 -22 -22 -16 -10 6 -1 24
13 24 5 0 9 -4 9 -8z m-680 -16 c0 -3 -4 -8 -10 -11 -5 -3 -10 -1 -10 4 0 6 5
11 10 11 6 0 10 -2 10 -4z m1457 -32 c-9 -9 -28 6 -21 18 4 6 10 6 17 -1 6 -6
8 -13 4 -17z m-2939 -119 c28 -13 28 -19 -3 -33 -16 -8 -28 -23 -31 -42 -8
-39 -17 -38 -37 5 -10 21 -26 37 -42 41 -31 8 -33 22 -2 26 14 2 29 17 41 41
l18 38 17 -33 c9 -18 26 -37 39 -43z m3567 65 c-3 -5 -10 -10 -16 -10 -5 0 -9
5 -9 10 0 6 7 10 16 10 8 0 12 -4 9 -10z m255 -85 c0 -18 -5 -25 -19 -25 -11
0 -23 5 -26 10 -11 18 3 40 25 40 15 0 20 -7 20 -25z m-3050 -3 c0 -13 -12
-22 -22 -16 -10 6 -1 24 13 24 5 0 9 -4 9 -8z m535 -22 c3 -5 1 -10 -4 -10 -6
0 -11 5 -11 10 0 6 2 10 4 10 3 0 8 -4 11 -10z m85 -14 c0 -20 -12 -26 -38
-19 -18 4 -20 8 -11 19 15 18 49 18 49 0z m826 -33 c-10 -10 -19 5 -10 18 6
11 8 11 12 0 2 -7 1 -15 -2 -18z m-1536 -34 c0 -5 -4 -9 -10 -9 -5 0 -10 7
-10 16 0 8 5 12 10 9 6 -3 10 -10 10 -16z m922 -1 c-7 -7 -12 -8 -12 -2 0 14
12 26 19 19 2 -3 -1 -11 -7 -17z m-396 -52 c-14 -28 -31 -21 -20 8 5 12 2 15
-11 10 -13 -5 -16 -3 -13 7 3 8 12 13 21 11 8 -1 19 3 24 10 15 24 15 -17 -1
-46z m1602 22 c-6 -18 -28 -21 -28 -4 0 9 7 16 16 16 9 0 14 -5 12 -12z m713
-1 c-1 -12 -15 -9 -19 4 -3 6 1 10 8 8 6 -3 11 -8 11 -12z m-1514 -73 c25 -21
25 -22 5 -28 -11 -4 -26 -20 -33 -36 l-13 -28 -18 29 c-10 16 -28 34 -41 38
l-22 9 26 12 c15 7 33 23 40 36 12 23 14 23 22 7 5 -10 20 -28 34 -39z m-882
17 c-3 -6 -11 -11 -17 -11 -6 0 -6 6 2 15 14 17 26 13 15 -4z m-689 -18 c-10
-10 -19 5 -10 18 6 11 8 11 12 0 2 -7 1 -15 -2 -18z m-771 -3 c-3 -5 -11 -10
-16 -10 -6 0 -7 5 -4 10 3 6 11 10 16 10 6 0 7 -4 4 -10z m1365 -45 c-15 -19
-50 -20 -50 -2 0 18 42 38 54 26 5 -5 4 -14 -4 -24z m2166 10 c16 -24 16 -27
-1 -45 -22 -25 -51 -26 -63 -2 -11 21 -5 43 16 60 22 17 29 15 48 -13z m834 5
c0 -5 -4 -10 -10 -10 -5 0 -10 5 -10 10 0 6 5 10 10 10 6 0 10 -4 10 -10z
m-4630 -20 c0 -5 -4 -10 -10 -10 -5 0 -10 5 -10 10 0 6 5 10 10 10 6 0 10 -4
10 -10z m2017 -6 c-3 -3 -12 -4 -19 -1 -8 3 -5 6 6 6 11 1 17 -2 13 -5z m2328
-34 c3 -5 -1 -10 -9 -10 -9 0 -16 5 -16 10 0 6 4 10 9 10 6 0 13 -4 16 -10z
m-2775 -9 c0 -5 -7 -14 -15 -21 -16 -14 -18 -10 -9 14 6 17 24 22 24 7z m-730
-15 c0 -11 -19 -15 -25 -6 -3 5 1 10 9 10 9 0 16 -2 16 -4z m590 -17 c0 -6 -4
-8 -9 -5 -5 4 -11 0 -14 -6 -2 -7 -8 -10 -12 -6 -10 10 14 40 26 32 5 -3 9
-10 9 -15z m885 -29 c-5 -8 -11 -8 -17 -2 -6 6 -7 16 -3 22 5 8 11 8 17 2 6
-6 7 -16 3 -22z m-445 6 c0 -3 -4 -8 -10 -11 -5 -3 -10 -1 -10 4 0 6 5 11 10
11 6 0 10 -2 10 -4z m50 -10 c0 -3 -4 -8 -10 -11 -5 -3 -10 -1 -10 4 0 6 5 11
10 11 6 0 10 -2 10 -4z m2120 -6 c0 -5 -5 -10 -11 -10 -5 0 -7 5 -4 10 3 6 8
10 11 10 2 0 4 -4 4 -10z m-2430 -20 c0 -5 -4 -10 -9 -10 -6 0 -13 5 -16 10
-3 6 1 10 9 10 9 0 16 -4 16 -10z m-660 -10 c0 -5 -4 -10 -10 -10 -5 0 -10 5
-10 10 0 6 5 10 10 10 6 0 10 -4 10 -10z m1910 -16 c0 -14 -21 -19 -33 -7 -9
9 13 34 24 27 5 -3 9 -12 9 -20z m1450 -194 c34 -101 91 -227 135 -297 14 -24
24 -43 21 -43 -2 0 -34 14 -72 30 -37 17 -69 29 -71 27 -7 -7 153 -319 211
-410 63 -100 65 -99 -69 -40 -127 55 -124 57 -75 -33 70 -128 101 -172 213
-306 59 -70 107 -132 107 -137 0 -16 -268 57 -298 82 -34 27 -18 -13 46 -120
80 -135 189 -293 235 -340 l31 -33 -28 0 c-40 0 -162 29 -235 57 -35 13 -66
22 -68 19 -12 -11 172 -292 274 -419 35 -43 63 -79 63 -81 0 -7 -125 5 -204
20 -43 8 -108 27 -143 41 -35 14 -65 24 -67 22 -5 -8 9 -467 15 -473 3 -3 30
-2 60 4 61 11 288 30 357 30 28 0 42 -4 37 -9 -19 -17 -716 -169 -996 -216
-239 -41 -233 -29 26 49 l110 34 22 78 c12 44 22 93 22 111 2 61 20 43 47 -48
27 -89 28 -91 55 -85 15 3 44 12 63 20 32 13 35 18 42 73 7 56 -1 422 -10 430
-2 2 -30 -9 -62 -25 -108 -54 -334 -118 -334 -94 0 5 50 80 111 168 60 87 129
192 151 234 23 41 57 99 75 129 19 29 30 51 26 49 -4 -2 -44 -22 -88 -44 -64
-33 -213 -94 -230 -94 -2 0 21 41 52 92 49 83 213 400 213 413 0 3 -19 -5 -42
-19 -51 -29 -216 -88 -235 -84 -9 2 6 27 40 68 29 36 81 106 114 155 66 98
198 333 191 340 -2 3 -59 -23 -126 -56 -67 -33 -126 -59 -131 -57 -6 1 28 62
75 133 84 128 210 362 201 372 -3 2 -33 -10 -67 -27 -34 -17 -65 -29 -68 -26
-3 3 18 54 46 113 58 124 98 223 137 343 15 47 30 89 33 95 3 5 11 -20 18 -55
7 -36 27 -108 44 -160z m-814 153 c-10 -10 -19 5 -10 18 6 11 8 11 12 0 2 -7
1 -15 -2 -18z m1212 -6 c2 -10 -3 -17 -12 -17 -18 0 -29 16 -21 31 9 14 29 6
33 -14z m-5462 2 c10 -17 -13 -36 -27 -22 -12 12 -4 33 11 33 5 0 12 -5 16
-11z m2809 -19 c-3 -5 -10 -10 -16 -10 -5 0 -9 5 -9 10 0 6 7 10 16 10 8 0 12
-4 9 -10z m-802 -31 c-17 -17 -36 -1 -20 16 7 8 16 10 22 4 5 -6 5 -13 -2 -20z
m107 7 c0 -16 -18 -31 -27 -22 -8 8 5 36 17 36 5 0 10 -6 10 -14z m-2611 -131
c47 -131 123 -299 171 -376 16 -27 30 -51 30 -54 0 -3 -34 12 -75 32 -41 20
-77 34 -81 30 -9 -8 84 -171 180 -316 42 -63 74 -117 71 -119 -8 -8 -117 32
-160 59 -25 16 -45 26 -45 22 0 -11 103 -187 153 -261 27 -41 77 -108 111
-151 34 -42 65 -82 69 -88 9 -15 -101 10 -224 51 l-97 31 22 -38 c11 -21 55
-84 97 -140 71 -95 118 -149 273 -322 32 -36 57 -67 54 -70 -10 -11 -284 58
-366 92 -8 3 10 -28 40 -68 30 -41 82 -115 117 -165 34 -51 90 -122 124 -160
l62 -67 -85 6 c-47 4 -111 14 -144 22 -32 9 -60 15 -61 13 -2 -2 23 -34 57
-71 l60 -67 -31 0 c-68 0 -214 63 -273 118 l-28 26 1 -130 c1 -71 4 -158 8
-193 l6 -63 110 -29 c211 -56 206 -55 221 -35 7 10 23 62 35 115 38 172 23
189 128 -148 4 -14 18 -28 32 -32 13 -4 92 -26 174 -49 83 -23 155 -46 160
-52 7 -8 4 -9 -9 -4 -11 4 -74 11 -140 16 -120 10 -176 20 -541 100 -249 55
-611 148 -603 155 3 3 124 -7 257 -20 l74 -8 -6 99 c-4 54 -7 129 -7 166 l0
67 -57 -26 c-117 -52 -233 -85 -233 -67 0 3 34 46 76 95 42 50 75 92 73 94 -3
2 -29 -5 -59 -15 -59 -20 -247 -46 -257 -37 -7 8 -1 16 98 138 71 88 232 320
226 326 -2 1 -36 -11 -76 -27 -40 -16 -109 -37 -154 -45 -45 -9 -90 -18 -99
-20 -10 -2 -18 -1 -18 1 0 2 30 36 66 76 36 39 92 106 125 149 65 86 200 291
195 297 -2 2 -19 -6 -37 -18 -39 -24 -241 -90 -276 -90 -21 0 -19 5 28 63 79
96 279 405 279 430 0 3 -26 -10 -57 -29 -69 -42 -183 -98 -188 -93 -2 2 40 69
93 149 83 124 222 370 209 370 -2 0 -42 -22 -88 -50 -46 -27 -87 -50 -91 -50
-4 0 8 28 28 63 91 158 214 454 214 512 0 34 16 2 59 -120z m1991 120 c0 -8
-7 -15 -15 -15 -16 0 -20 12 -8 23 11 12 23 8 23 -8z m710 11 c0 -2 -7 -9 -15
-16 -12 -10 -15 -10 -15 4 0 9 7 16 15 16 8 0 15 -2 15 -4z m-1752 -38 c18
-18 14 -45 -10 -62 -37 -26 -79 14 -58 55 12 21 50 25 68 7z m372 -29 c0 -5
-7 -9 -15 -9 -15 0 -20 12 -9 23 8 8 24 -1 24 -14z m1595 11 c3 -6 -1 -13 -10
-16 -19 -8 -30 0 -20 15 8 14 22 14 30 1z m1071 -37 c-10 -10 -19 5 -10 18 6
11 8 11 12 0 2 -7 1 -15 -2 -18z m-198 -6 c2 -10 -3 -17 -12 -17 -18 0 -29 16
-21 31 9 14 29 6 33 -14z m1262 -2 c0 -8 -7 -15 -15 -15 -16 0 -20 12 -8 23
11 12 23 8 23 -8z m-2506 -10 c3 -8 1 -15 -3 -15 -5 0 -11 7 -15 15 -3 8 -1
15 3 15 5 0 11 -7 15 -15z m-424 -15 c0 -5 -2 -10 -4 -10 -3 0 -8 5 -11 10 -3
6 -1 10 4 10 6 0 11 -4 11 -10z m1130 0 c0 -5 -4 -10 -10 -10 -5 0 -10 5 -10
10 0 6 5 10 10 10 6 0 10 -4 10 -10z m290 -258 c160 -162 236 -246 262 -292
21 -35 36 -66 34 -68 -8 -7 -64 28 -154 98 -51 39 -92 65 -92 58 0 -7 7 -35
15 -62 24 -77 18 -75 -103 39 -55 52 -154 187 -211 288 -26 46 -31 63 -26 90
12 52 24 77 37 77 7 0 114 -103 238 -228z m-3140 187 c0 -5 -7 -9 -15 -9 -15
0 -20 12 -9 23 8 8 24 -1 24 -14z m5742 6 c0 -5 -5 -11 -11 -13 -6 -2 -11 4
-11 13 0 9 5 15 11 13 6 -2 11 -8 11 -13z m-4372 -21 c0 -8 -7 -14 -15 -14
-15 0 -21 21 -9 33 10 9 24 -2 24 -19z m2418 -16 c-6 -18 -28 -21 -28 -4 0 9
7 16 16 16 9 0 14 -5 12 -12z m546 -23 c4 -14 20 -32 37 -41 33 -16 32 -20 -3
-38 -12 -6 -25 -22 -28 -34 -6 -29 -19 -30 -34 -1 -6 12 -20 27 -31 33 -11 6
-22 12 -24 13 -2 1 10 16 28 32 17 16 31 36 31 45 0 25 17 19 24 -9z m-2424 5
c0 -5 -2 -10 -4 -10 -3 0 -8 5 -11 10 -3 6 -1 10 4 10 6 0 11 -4 11 -10z m70
-35 c0 -8 -4 -15 -10 -15 -5 0 -10 7 -10 15 0 8 5 15 10 15 6 0 10 -7 10 -15z
m-164 -60 c4 -8 3 -22 0 -30 -5 -14 -8 -14 -31 1 -27 18 -34 37 -10 28 8 -4
15 -1 15 5 0 16 20 13 26 -4z m1770 -42 c-10 -10 -19 5 -10 18 6 11 8 11 12 0
2 -7 1 -15 -2 -18z m-3016 -23 c0 -5 -4 -10 -10 -10 -5 0 -10 5 -10 10 0 6 5
10 10 10 6 0 10 -4 10 -10z m1037 -29 c6 -9 10 -18 8 -21 -2 -3 5 -6 16 -6 21
0 26 12 7 19 -10 3 -8 10 5 23 13 15 21 16 35 8 22 -14 30 -56 8 -48 -8 3 -17
13 -19 22 -3 12 -5 10 -6 -6 -1 -26 -39 -45 -58 -30 -8 6 -10 4 -7 -9 4 -13
-1 -19 -15 -20 -28 -2 -36 14 -17 32 18 18 11 46 -10 38 -14 -5 -20 8 -8 19 9
9 48 -4 61 -21z m-1047 -1 c0 -5 -4 -10 -10 -10 -5 0 -10 5 -10 10 0 6 5 10
10 10 6 0 10 -4 10 -10z m3375 -10 c-3 -5 -11 -10 -16 -10 -6 0 -7 5 -4 10 3
6 11 10 16 10 6 0 7 -4 4 -10z m-2836 -46 c-15 -18 -28 -18 -36 2 -8 20 17 36
34 22 10 -8 10 -14 2 -24z m368 15 c4 -13 8 -17 13 -9 5 9 9 8 12 -2 3 -8 -3
-24 -13 -37 -17 -21 -19 -21 -19 -4 0 10 -10 27 -21 37 -18 15 -19 20 -8 27
22 14 30 11 36 -12z m3183 1 c0 -5 -4 -10 -10 -10 -5 0 -10 5 -10 10 0 6 5 10
10 10 6 0 10 -4 10 -10z m-3253 -42 c-3 -8 -6 -5 -6 6 -1 11 2 17 5 13 3 -3 4
-12 1 -19z m2633 -4 c0 -8 -5 -12 -10 -9 -6 4 -8 11 -5 16 9 14 15 11 15 -7z
m1470 8 c0 -13 -12 -22 -22 -16 -10 6 -1 24 13 24 5 0 9 -4 9 -8z m-3920 -64
c-11 -12 -23 -19 -26 -15 -9 9 15 37 33 37 10 0 8 -6 -7 -22z m1323 -10 c12
-7 60 -26 107 -43 92 -33 94 -35 115 -133 l7 -34 -29 15 c-29 16 -227 179
-238 197 -8 14 11 13 38 -2z m-1178 -8 c-3 -5 -11 -10 -16 -10 -6 0 -7 5 -4
10 3 6 11 10 16 10 6 0 7 -4 4 -10z m-1235 -36 c0 -8 -4 -12 -10 -9 -5 3 -10
10 -10 16 0 5 5 9 10 9 6 0 10 -7 10 -16z m3960 -25 c0 -5 -7 -9 -15 -9 -15 0
-20 12 -9 23 8 8 24 -1 24 -14z m-3203 -5 c16 6 17 -6 2 -21 -14 -14 -42 -6
-57 17 -11 18 -10 19 15 9 14 -5 32 -8 40 -5z m1393 6 c0 -5 -5 -10 -11 -10
-5 0 -7 5 -4 10 3 6 8 10 11 10 2 0 4 -4 4 -10z m-1210 -44 c0 -8 -7 -16 -15
-20 -15 -5 -21 14 -8 27 11 12 23 8 23 -7z m2360 -25 c0 -5 -7 -12 -16 -15
-14 -5 -15 -4 -4 9 14 17 20 19 20 6z m-2765 -31 c3 -5 -1 -10 -9 -10 -9 0
-16 5 -16 10 0 6 4 10 9 10 6 0 13 -4 16 -10z m2460 -172 c46 -80 333 -541
382 -613 51 -76 52 -80 31 -84 -34 -5 -62 33 -267 363 -102 163 -187 296 -190
296 -3 -1 -103 -145 -221 -320 l-215 -319 -40 -5 c-22 -3 -263 -12 -535 -21
-272 -9 -601 -20 -730 -25 -129 -6 -302 -10 -383 -10 l-148 0 12 21 c6 12 82
119 168 238 87 119 176 244 199 278 45 67 43 66 162 77 30 3 165 17 300 30
244 25 530 50 920 81 163 13 409 33 520 44 9 0 24 -14 35 -31z m-2822 -436
c25 -55 59 -124 76 -151 17 -28 31 -53 31 -56 0 -3 -29 6 -65 19 l-66 24 52
-96 c57 -107 99 -173 137 -214 14 -15 23 -31 19 -34 -6 -7 -109 15 -151 32
-19 7 34 -103 133 -278 18 -32 28 -58 22 -58 -6 0 -45 9 -87 21 -41 11 -78 18
-81 15 -9 -8 96 -163 163 -242 l57 -67 -59 8 c-51 6 -149 34 -206 59 -17 8
-18 -2 -18 -122 l0 -131 43 -10 c36 -9 32 -10 -33 -5 -41 3 -93 9 -115 14 -40
8 -40 8 -7 9 l34 1 -4 124 c-2 69 -5 127 -8 130 -3 3 -47 -8 -98 -24 -99 -32
-112 -35 -112 -21 0 5 26 49 58 97 32 49 68 106 80 126 l23 37 -63 -28 c-35
-16 -87 -36 -116 -45 -64 -18 -64 -17 -4 72 55 81 165 282 159 289 -3 3 -41
-7 -83 -21 -43 -14 -79 -24 -82 -22 -2 3 26 49 62 103 55 84 156 275 156 297
0 4 -26 -7 -57 -24 -32 -16 -61 -30 -65 -30 -4 0 6 23 23 51 42 67 112 228
140 319 l22 74 23 -71 c13 -39 43 -116 67 -171z m3727 32 c24 -75 106 -261
139 -314 11 -19 21 -38 21 -42 0 -4 -25 3 -56 17 -31 14 -58 25 -60 25 -18 0
49 -149 111 -246 20 -31 34 -58 32 -61 -3 -2 -34 2 -71 8 -36 7 -69 10 -72 6
-3 -3 28 -63 70 -132 l76 -127 -50 7 c-30 4 -50 3 -50 -3 0 -10 21 -41 83
-128 33 -46 45 -74 32 -74 -13 0 -162 43 -178 52 -12 6 -23 5 -33 -3 -19 -16
-32 -3 -40 39 -5 26 -4 31 8 27 16 -7 33 31 18 40 -4 3 -6 15 -4 28 3 18 1 17
-8 -5 -12 -29 -45 -51 -34 -23 3 10 -7 21 -32 34 -20 11 -31 20 -24 21 7 0 10
5 7 10 -3 6 1 10 11 10 13 0 14 -3 4 -15 -12 -14 -9 -17 18 -14 4 0 6 7 4 16
-2 8 1 12 7 8 6 -3 11 -2 11 4 0 19 -54 17 -72 -3 -16 -17 -18 -17 -24 -1 -4
10 -1 21 7 26 11 6 8 9 -8 9 -13 0 -23 2 -23 5 0 3 20 43 45 88 25 46 45 86
45 89 0 3 -31 3 -70 0 -38 -2 -70 -2 -70 2 0 3 25 57 56 119 31 61 62 129 70
149 l13 37 -25 -9 c-13 -5 -37 -16 -54 -25 -45 -23 -54 -18 -30 18 41 62 141
292 166 385 6 22 12 13 34 -54z m-890 -239 l0 -115 -75 0 -75 0 0 115 0 115
75 0 75 0 0 -115z m127 -168 c-1 -45 -3 -5 -3 88 0 94 2 130 3 82 2 -48 2
-125 0 -170z m-400 -29 c-1 -46 -3 -11 -3 77 0 88 2 125 3 83 2 -42 2 -114 0
-160z m504 135 c4 -26 8 -92 8 -145 1 -78 -2 -98 -13 -98 -14 0 -15 2 -31 250
-5 69 -4 73 11 58 10 -9 21 -38 25 -65z m-742 -199 l2 -114 -27 0 -27 0 5 116
c4 82 9 119 19 125 22 13 27 -8 28 -127z m-413 104 c4 -7 10 -47 14 -90 l5
-78 -31 0 c-28 0 -32 3 -38 38 -8 49 -8 127 1 135 11 11 41 8 49 -5z m3268
-122 c31 -71 55 -131 53 -132 -1 -1 -24 8 -50 20 -26 13 -47 21 -47 18 0 -8
80 -152 116 -210 19 -29 34 -55 34 -57 0 -3 -29 -3 -65 1 l-65 7 0 -90 0 -91
-27 -5 c-16 -3 -30 -3 -33 -1 -2 3 -6 48 -8 100 -3 73 -7 94 -18 90 -32 -12
-96 -27 -101 -23 -2 3 6 24 18 48 28 56 89 198 89 209 0 5 -16 6 -35 3 -19 -3
-35 -3 -35 0 0 3 20 46 44 95 24 50 49 105 55 123 6 18 13 30 15 28 2 -2 29
-62 60 -133z m-3794 34 l0 -90 -30 0 -30 0 0 90 0 90 30 0 30 0 0 -90z m78 -2
l3 -88 -31 0 -30 0 0 91 0 90 28 -3 c27 -3 27 -3 30 -90z m376 31 c11 -108 11
-109 -29 -109 l-35 0 0 85 0 85 29 0 c27 0 28 -2 35 -61z m-1146 -72 c2 -88 0
-107 -12 -107 -18 0 -31 100 -21 170 12 89 30 55 33 -63z m262 23 l0 -90 -30
0 -30 0 0 90 0 90 30 0 30 0 0 -90z m74 82 c2 -4 2 -45 -1 -90 -6 -78 -7 -82
-29 -82 -23 0 -24 2 -24 90 0 89 0 90 24 90 14 0 27 -3 30 -8z m1673 -139 c-2
-21 -4 -4 -4 37 0 41 2 58 4 38 2 -21 2 -55 0 -75z m123 60 c0 -20 -3 -24 -11
-16 -7 7 -9 19 -6 27 10 24 17 19 17 -11z m480 -32 c0 -33 -23 -232 -36 -311
-28 -165 -111 -384 -181 -478 -34 -46 -39 -34 -10 25 32 64 80 214 106 337 16
71 49 361 51 434 0 7 70 1 70 -7z m-130 -90 c0 -22 -6 -30 -22 -34 -57 -14
-336 -37 -573 -47 -257 -10 -1542 -30 -1993 -30 l-234 0 7 -52 c26 -192 100
-363 214 -497 59 -69 30 -54 -55 29 -112 110 -152 180 -189 332 -29 121 -33
223 -9 232 9 3 291 6 627 6 662 0 1456 15 1657 30 226 17 464 41 500 50 63 15
70 13 70 -19z m303 -38 c20 -12 -6 -214 -44 -332 -35 -112 -106 -227 -184
-301 l-37 -35 37 55 c56 83 100 176 129 270 31 103 58 257 50 282 -3 10 -23
26 -45 34 -43 18 -43 18 -29 44 10 18 13 18 63 3 28 -8 55 -17 60 -20z m-313
-83 c0 -5 -1 -10 -3 -10 -2 0 -28 -4 -58 -10 -114 -20 -621 -59 -609 -46 3 3
91 12 195 21 191 15 436 43 444 51 8 8 31 4 31 -6z m-35 -75 c-35 -15 -194
-32 -425 -45 -160 -9 -1130 -22 -1060 -14 19 2 235 8 480 14 453 10 688 22
885 45 146 16 157 17 120 0z m-1608 -1 c-3 -3 -12 -4 -19 -1 -8 3 -5 6 6 6 11
1 17 -2 13 -5z m-392 -44 l120 -6 -140 -1 c-77 0 -205 3 -285 7 l-145 6 165 1
c91 0 219 -3 285 -7z m1971 -90 c-52 -16 -276 -39 -476 -49 -212 -11 -657 -22
-625 -16 11 2 144 9 295 15 287 11 659 36 745 50 68 11 98 11 61 0z m-1566
-60 l65 -7 -75 0 c-41 0 -106 3 -145 7 l-70 7 80 0 c44 0 109 -3 145 -7z
m-775 -395 c198 -8 430 -20 515 -25 85 -6 196 -10 245 -10 56 0 84 -4 75 -9
-26 -15 -1139 27 -1275 49 l-50 8 65 1 c36 0 227 -6 425 -14z m2453 -52 c129
-3 227 -10 220 -14 -16 -11 -280 -11 -749 -1 -200 4 -332 10 -294 13 105 8
560 10 823 2z m-1348 -113 c-89 -10 -761 -10 -730 0 14 4 198 8 410 7 218 0
357 -3 320 -7z m-2810 -51 c0 -5 -4 -9 -10 -9 -5 0 -10 7 -10 16 0 8 5 12 10
9 6 -3 10 -10 10 -16z m1370 0 c0 -5 -4 -9 -10 -9 -5 0 -10 7 -10 16 0 8 5 12
10 9 6 -3 10 -10 10 -16z m4270 11 c0 -5 -4 -10 -10 -10 -5 0 -10 5 -10 10 0
6 5 10 10 10 6 0 10 -4 10 -10z m-2427 -57 c-72 -2 -194 -2 -270 0 -76 1 -16
3 132 3 149 0 211 -2 138 -3z m745 0 c-16 -2 -40 -2 -55 0 -16 2 -3 4 27 4 30
0 43 -2 28 -4z m579 -19 c-9 -9 -28 6 -21 18 4 6 10 6 17 -1 6 -6 8 -13 4 -17z
m-4046 -30 c88 -46 102 -61 75 -83 -8 -7 -24 -33 -36 -59 -31 -66 -103 -263
-97 -268 9 -9 248 117 341 180 l98 67 76 -31 c84 -33 109 -47 102 -53 -3 -3
-103 -55 -222 -117 -121 -62 -218 -118 -218 -125 0 -28 170 -526 199 -584 17
-34 27 -61 21 -61 -5 0 -61 24 -123 53 l-113 54 -42 164 c-23 90 -54 201 -68
247 -24 73 -29 82 -51 82 -13 0 -35 -11 -48 -24 -28 -28 -73 -165 -82 -247 -7
-68 -1 -69 -107 27 l-67 60 104 290 c103 286 140 393 151 447 4 15 9 27 12 27
3 0 46 -21 95 -46z m4714 -41 c20 -42 32 -79 28 -83 -5 -3 -35 -14 -68 -24
-64 -19 -193 -90 -201 -110 -8 -20 184 -508 237 -604 23 -40 27 -57 19 -67 -6
-7 -47 -37 -91 -66 -89 -58 -93 -58 -102 20 -3 25 -38 132 -77 236 -39 105
-96 258 -126 340 -31 83 -67 165 -81 183 l-25 33 224 109 c123 60 224 109 226
110 1 0 18 -35 37 -77z m-2965 37 c31 -10 -98 -10 -260 0 -113 6 -113 7 60 7
96 1 186 -3 200 -7z m745 -125 c6 -2 -91 -4 -215 -4 -124 0 -231 3 -239 8 -12
8 431 4 454 -4z m-3095 -13 c0 -13 -12 -22 -22 -16 -10 6 -1 24 13 24 5 0 9
-4 9 -8z m1740 -48 c0 -8 -4 -12 -10 -9 -5 3 -10 10 -10 16 0 5 5 9 10 9 6 0
10 -7 10 -16z m470 6 c0 -5 -4 -10 -10 -10 -5 0 -10 5 -10 10 0 6 5 10 10 10
6 0 10 -4 10 -10z m1685 -60 c-3 -5 -11 -10 -16 -10 -6 0 -7 5 -4 10 3 6 11
10 16 10 6 0 7 -4 4 -10z m1795 -14 c0 -3 -4 -8 -10 -11 -5 -3 -10 -1 -10 4 0
6 5 11 10 11 6 0 10 -2 10 -4z m-2253 -12 c-3 -3 -12 -4 -19 -1 -8 3 -5 6 6 6
11 1 17 -2 13 -5z m1191 -85 c12 -44 20 -85 17 -90 -4 -5 -27 -9 -53 -9 -55 0
-167 -23 -235 -47 -33 -12 -46 -21 -43 -32 3 -9 12 -60 21 -114 15 -81 20 -97
34 -92 9 2 74 18 144 34 89 20 130 25 133 17 13 -37 24 -110 17 -117 -4 -4
-68 -23 -142 -43 -73 -19 -135 -37 -138 -40 -2 -2 5 -59 16 -126 12 -68 21
-126 21 -131 0 -16 69 -10 130 11 86 29 216 104 249 144 28 34 38 18 49 -81 6
-53 9 -100 6 -104 -9 -15 -543 -179 -585 -179 -13 0 -17 18 -22 103 -7 98 -69
514 -101 666 -9 44 -27 90 -42 113 -15 21 -25 40 -23 42 2 2 81 27 174 55 94
28 204 61 245 75 41 13 82 24 90 25 11 1 22 -23 38 -80z m-2854 -28 c193 -95
287 -337 230 -594 -48 -216 -209 -376 -395 -393 -250 -24 -449 190 -449 480 1
167 48 300 145 404 100 108 184 144 323 138 68 -3 95 -9 146 -35z m2062 -214
c2 -103 39 -492 65 -667 6 -41 20 -92 31 -113 11 -22 17 -41 15 -44 -8 -7
-236 -48 -241 -42 -2 2 1 23 7 46 8 32 8 79 -1 190 -7 80 -14 149 -16 151 -3
2 -33 -5 -68 -16 -153 -50 -298 -37 -371 34 -69 68 -85 120 -97 318 -4 78 -11
151 -15 162 -6 21 -3 22 95 29 55 4 103 5 105 3 3 -2 0 -22 -7 -44 -6 -25 -8
-79 -4 -148 10 -174 44 -226 148 -229 56 -1 149 22 182 46 20 14 20 17 3 168
-9 85 -22 171 -29 191 -6 21 -9 40 -7 43 6 5 153 33 184 34 19 1 20 -6 21
-112z m-1212 63 c195 -19 278 -93 278 -246 -1 -91 -47 -168 -113 -189 -20 -7
-27 -25 -9 -25 22 0 90 -54 117 -92 26 -38 28 -49 27 -127 0 -47 -6 -103 -13
-123 -15 -46 -104 -129 -157 -147 -62 -21 -291 -25 -433 -7 -68 8 -126 18
-129 20 -2 3 3 16 11 30 9 14 21 44 26 68 19 82 63 641 59 746 l-4 102 121 0
c66 0 164 -5 219 -10z m380 -1231 c-3 -5 -10 -7 -15 -3 -5 3 -7 10 -3 15 3 5
10 7 15 3 5 -3 7 -10 3 -15z"/>
<path d="M4085 6822 c-35 -7 -65 -43 -65 -77 0 -40 16 -55 57 -55 58 0 91 58
63 109 -11 22 -28 29 -55 23z"/>
<path d="M1870 5990 c-8 -5 -10 -10 -5 -10 6 0 17 5 25 10 8 5 11 10 5 10 -5
0 -17 -5 -25 -10z"/>
<path d="M1975 6500 c-3 -6 1 -7 9 -4 18 7 21 14 7 14 -6 0 -13 -4 -16 -10z"/>
<path d="M1928 6478 c-10 -8 -13 -20 -9 -31 5 -15 9 -13 24 13 19 31 12 39
-15 18z"/>
<path d="M1890 6446 c0 -14 4 -27 8 -30 5 -3 6 8 4 25 -5 35 -12 38 -12 5z"/>
<path d="M1972 6391 c-10 -6 -10 -10 1 -19 10 -9 17 -9 28 1 8 6 12 11 10 10
-2 -2 -9 1 -15 7 -7 5 -17 5 -24 1z"/>
<path d="M1915 6370 c-3 -5 -2 -10 4 -10 5 0 13 5 16 10 3 6 2 10 -4 10 -5 0
-13 -4 -16 -10z"/>
<path d="M2174 6324 c-18 -14 -18 -15 4 -4 12 6 22 13 22 15 0 8 -5 6 -26 -11z"/>
<path d="M2108 6284 c-36 -23 -49 -44 -28 -44 6 0 9 6 8 13 -2 6 4 12 12 12
16 0 57 32 49 39 -2 2 -21 -7 -41 -20z"/>
<path d="M2088 6223 c7 -3 16 -2 19 1 4 3 -2 6 -13 5 -11 0 -14 -3 -6 -6z"/>
<path d="M4352 4450 c-227 -16 -466 -33 -530 -40 -64 -6 -178 -18 -252 -25
-378 -37 -466 -48 -479 -59 -8 -6 -58 -76 -111 -156 -54 -80 -130 -192 -170
-249 l-73 -104 109 7 c60 4 114 12 121 18 7 5 77 107 156 227 79 119 154 225
167 236 25 22 -18 -50 -186 -308 -60 -92 -100 -163 -94 -165 7 -3 58 -1 114 3
l102 7 60 94 c133 211 276 426 281 421 7 -8 -5 -29 -160 -275 -78 -125 -135
-227 -131 -232 5 -5 53 -6 108 -3 l98 6 25 36 c13 20 78 122 144 226 67 105
132 205 145 223 30 39 53 43 26 5 -46 -66 -302 -476 -302 -485 0 -6 43 -7 113
-3 86 5 115 11 125 24 7 9 79 120 159 246 140 221 178 274 187 264 2 -2 -70
-121 -160 -263 -90 -143 -163 -260 -161 -260 1 -1 55 1 119 4 l117 5 104 165
c143 228 235 370 242 370 15 0 -8 -40 -250 -428 -38 -62 -54 -97 -48 -103 6
-6 48 -8 111 -3 l101 7 43 71 c69 117 285 441 304 457 16 13 16 12 1 -16 -9
-16 -83 -136 -166 -265 l-150 -235 32 -5 c63 -10 90 0 123 43 49 67 364 535
364 541 0 8 1 8 -478 -24z"/>
<path d="M5815 3270 c-3 -5 -1 -10 4 -10 6 0 11 5 11 10 0 6 -2 10 -4 10 -3 0
-8 -4 -11 -10z"/>
<path d="M5850 3220 c0 -5 5 -10 11 -10 5 0 7 5 4 10 -3 6 -8 10 -11 10 -2 0
-4 -4 -4 -10z"/>
<path d="M5850 3141 c0 -7 -4 -9 -10 -6 -5 3 -10 1 -10 -4 0 -6 4 -11 9 -11
13 0 25 20 17 27 -3 4 -6 1 -6 -6z"/>
<path d="M2665 1920 c-45 -10 -67 -24 -112 -73 -88 -95 -138 -251 -130 -404 4
-79 9 -103 36 -158 40 -82 87 -116 166 -123 146 -12 265 138 287 363 20 191
-17 309 -112 366 -51 31 -91 39 -135 29z"/>
<path d="M3540 1688 c0 -29 -3 -90 -7 -135 l-6 -83 56 0 c87 0 157 19 189 50
24 25 28 36 28 87 0 52 -4 63 -27 85 -40 38 -74 48 -159 48 l-74 0 0 -52z"/>
<path d="M3516 1330 c-3 -14 -8 -86 -12 -161 l-7 -136 39 -6 c60 -10 143 -8
185 4 138 42 139 254 1 300 -19 6 -72 14 -118 18 -82 6 -83 6 -88 -19z"/>
</g>
</svg>
